<svg width="528" height="106" viewBox="0 0 528 106" fill="none" xmlns="http://www.w3.org/2000/svg">
<path d="M127.179 75.2316L117.518 75.161L132.55 32.6264L144.168 32.7113L158.557 75.4609L148.895 75.3903L138.454 42.4144L138.121 42.412L127.179 75.2316ZM126.697 58.466L149.518 58.6328L149.466 65.6704L126.646 65.5036L126.697 58.466ZM163.689 75.4985L164.001 32.8562L180.824 32.9792C184.045 33.0027 186.789 33.5988 189.057 34.7676C191.339 35.9226 193.069 37.5524 194.248 39.6572C195.44 41.7482 196.026 44.2026 196.005 47.0204C195.985 49.8521 195.356 52.2837 194.12 54.3153C192.883 56.333 191.102 57.8747 188.776 58.9405C186.464 60.0064 183.67 60.5273 180.394 60.5034L169.13 60.4211L169.183 53.1752L178.99 53.2469C180.711 53.2595 182.142 53.0339 183.284 52.5703C184.426 52.1067 185.278 51.4049 185.84 50.4651C186.416 49.5254 186.709 48.3545 186.719 46.9525C186.729 45.5367 186.454 44.3408 185.892 43.365C185.343 42.3893 184.495 41.6473 183.347 41.1392C182.212 40.6173 180.777 40.35 179.042 40.3373L172.962 40.2929L172.705 75.5644L163.689 75.4985ZM186.859 56.2612L197.316 75.7442L187.363 75.6715L177.136 56.1901L186.859 56.2612ZM198.205 33.1062L208.303 33.18L217.893 51.6155L218.309 51.6186L228.167 33.3252L238.265 33.399L222.51 60.8528L222.4 75.9275L213.447 75.8621L213.557 60.7874L198.205 33.1062ZM269.529 33.6275L278.544 33.6934L278.342 61.3858C278.319 64.4952 277.557 67.2104 276.055 69.5315C274.566 71.8528 272.491 73.6561 269.831 74.9416C267.17 76.2131 264.077 76.836 260.551 76.8102C257.011 76.7844 253.921 76.1163 251.279 74.806C248.637 73.4818 246.589 71.6483 245.135 69.3056C243.68 66.9628 242.965 64.2368 242.987 61.1274L243.19 33.435L252.205 33.5009L252.009 60.4229C251.997 62.047 252.34 63.4932 253.039 64.7615C253.751 66.03 254.757 67.0299 256.057 67.7612C257.357 68.4926 258.874 68.8646 260.609 68.8773C262.358 68.8901 263.881 68.5403 265.177 67.8279C266.487 67.1156 267.5 66.1305 268.218 64.8725C268.949 63.6146 269.32 62.1736 269.332 60.5495L269.529 33.6275Z" fill="white"/>
<path d="M290.338 53.7668L290.367 49.7196L311.631 49.875L311.601 53.9222L303.364 53.862L303.199 76.4662L298.41 76.4312L298.575 53.827L290.338 53.7668ZM321.275 76.9888C319.271 76.9741 317.543 76.5451 316.092 75.7015C314.649 74.8494 313.543 73.6527 312.773 72.1114C312.004 70.5615 311.627 68.7411 311.642 66.6503C311.657 64.5942 312.06 62.7925 312.853 61.2453C313.654 59.6894 314.764 58.4829 316.185 57.6257C317.605 56.7598 319.27 56.3338 321.178 56.3477C322.41 56.3567 323.571 56.5648 324.662 56.9718C325.761 57.3703 326.728 57.9847 327.563 58.815C328.407 59.6454 329.068 60.7 329.544 61.9789C330.021 63.2491 330.253 64.7604 330.24 66.5129L330.229 67.9574L313.846 67.8376L313.869 64.6624L325.737 64.7491C325.735 63.8468 325.546 63.0429 325.169 62.3374C324.792 61.6232 324.263 61.0597 323.581 60.6469C322.907 60.2342 322.119 60.0246 321.217 60.018C320.254 60.011 319.406 60.239 318.674 60.7022C317.942 61.1567 317.369 61.7598 316.956 62.5116C316.551 63.2548 316.341 64.0731 316.326 64.9666L316.306 67.7385C316.297 68.901 316.503 69.9003 316.922 70.7362C317.341 71.5635 317.93 72.2012 318.691 72.6492C319.451 73.0886 320.343 73.312 321.367 73.3195C322.052 73.3245 322.673 73.2336 323.23 73.0468C323.786 72.8513 324.27 72.5642 324.681 72.1854C325.091 71.8067 325.403 71.3361 325.615 70.7737L330.01 71.3004C329.724 72.4609 329.187 73.4721 328.4 74.3339C327.621 75.1872 326.628 75.848 325.418 76.3163C324.209 76.776 322.828 77.0001 321.275 76.9888ZM342.867 77.1466C340.872 77.132 339.162 76.6814 337.737 75.7947C336.32 74.908 335.232 73.6898 334.471 72.1399C333.719 70.5814 333.35 68.7914 333.365 66.77C333.38 64.7399 333.783 62.9512 334.575 61.404C335.367 59.8481 336.478 58.6416 337.907 57.7844C339.345 56.9187 341.04 56.4929 342.992 56.5072C344.614 56.519 346.048 56.8288 347.293 57.4366C348.547 58.0357 349.543 58.8802 350.281 59.9701C351.019 61.0514 351.435 62.3124 351.528 63.7533L347.026 63.7204C346.851 62.7561 346.423 61.9504 345.742 61.3034C345.07 60.6478 344.166 60.3159 343.029 60.3076C342.066 60.3005 341.219 60.5546 340.486 61.0698C339.754 61.5763 339.18 62.3096 338.765 63.2696C338.359 64.2297 338.151 65.3821 338.141 66.7268C338.131 68.0889 338.322 69.2615 338.714 70.2448C339.106 71.2194 339.66 71.9739 340.376 72.5084C341.101 73.0342 341.954 73.3008 342.934 73.3079C343.628 73.313 344.25 73.1874 344.798 72.9311C345.355 72.6662 345.822 72.2836 346.199 71.7831C346.576 71.2826 346.836 70.6729 346.98 69.9538L351.483 69.9867C351.36 71.4 350.934 72.6506 350.206 73.7385C349.478 74.8177 348.492 75.6607 347.246 76.2676C346.001 76.8658 344.542 77.1588 342.867 77.1466ZM360.098 65.1694L360.012 76.8815L355.301 76.847L355.496 50.1956L360.103 50.2293L360.029 60.2886L360.263 60.2904C360.74 59.1659 361.471 58.282 362.456 57.6385C363.45 56.9864 364.71 56.6659 366.237 56.6771C367.625 56.6872 368.833 56.9867 369.862 57.5755C370.89 58.1643 371.682 59.0203 372.237 60.1436C372.802 61.2669 373.078 62.6354 373.066 64.2491L372.973 76.9762L368.262 76.9418L368.35 64.9434C368.36 63.5987 368.021 62.5508 367.332 61.7996C366.652 61.0398 365.692 60.6554 364.451 60.6463C363.618 60.6402 362.871 60.817 362.209 61.1765C361.556 61.5275 361.04 62.0399 360.662 62.7139C360.293 63.3879 360.105 64.2064 360.098 65.1694ZM382.572 65.3337L382.486 77.0457L377.775 77.0113L377.921 57.0227L382.424 57.0556L382.399 60.4521L382.633 60.4538C383.101 59.3381 383.841 58.4542 384.852 57.8022C385.872 57.1502 387.128 56.8297 388.62 56.8406C390 56.8507 391.199 57.1545 392.218 57.7519C393.247 58.3494 394.038 59.2098 394.594 60.333C395.159 61.4564 395.431 62.8162 395.41 64.4124L395.317 77.1395L390.606 77.1051L390.694 65.1067C390.704 63.7707 390.365 62.7227 389.676 61.9629C388.996 61.2031 388.049 60.8188 386.834 60.8099C386.01 60.8039 385.276 60.9807 384.631 61.3404C383.995 61.6915 383.493 62.204 383.123 62.878C382.763 63.5521 382.579 64.3707 382.572 65.3337ZM408.822 77.6286C406.87 77.6144 405.182 77.1725 403.757 76.3032C402.331 75.4339 401.23 74.2242 400.451 72.6741C399.682 71.1242 399.305 69.3168 399.32 67.252C399.335 65.1872 399.739 63.3812 400.531 61.834C401.332 60.2868 402.451 59.089 403.889 58.2406C405.326 57.3922 407.021 56.9751 408.973 56.9894C410.925 57.0037 412.614 57.4455 414.039 58.3148C415.464 59.1842 416.562 60.3981 417.331 61.9568C418.109 63.5155 418.491 65.3272 418.476 67.392C418.46 69.4568 418.052 71.2584 417.252 72.7969C416.46 74.3355 415.345 75.529 413.907 76.3774C412.469 77.2258 410.774 77.6429 408.822 77.6286ZM408.876 73.8549C409.934 73.8627 410.821 73.5785 411.537 73.0024C412.253 72.4177 412.788 71.6321 413.142 70.6456C413.505 69.6592 413.691 68.5587 413.7 67.3441C413.709 66.1208 413.539 65.0134 413.19 64.0218C412.851 63.0216 412.327 62.2239 411.62 61.6287C410.913 61.0336 410.03 60.7322 408.972 60.7244C407.887 60.7165 406.983 61.0049 406.259 61.5895C405.543 62.1743 405.004 62.9642 404.641 63.9593C404.286 64.9458 404.105 66.0506 404.096 67.2739C404.087 68.4885 404.252 69.5916 404.592 70.5831C404.941 71.5747 405.468 72.3681 406.176 72.9632C406.891 73.5498 407.791 73.847 408.876 73.8549ZM427.307 50.7205L427.112 77.3719L422.401 77.3374L422.596 50.686L427.307 50.7205ZM440.673 77.8614C438.721 77.8471 437.032 77.4053 435.607 76.536C434.182 75.6666 433.08 74.4569 432.302 72.9069C431.532 71.357 431.155 69.5496 431.17 67.4848C431.185 65.42 431.589 63.614 432.381 62.0668C433.182 60.5196 434.301 59.3218 435.739 58.4734C437.177 57.625 438.871 57.2079 440.823 57.2222C442.775 57.2364 444.464 57.6782 445.889 58.5476C447.314 59.4169 448.412 60.6309 449.181 62.1896C449.959 63.7483 450.341 65.56 450.326 67.6248C450.311 69.6896 449.903 71.4912 449.102 73.0297C448.31 74.5683 447.195 75.7617 445.757 76.6102C444.319 77.4586 442.625 77.8757 440.673 77.8614ZM440.726 74.0877C441.785 74.0954 442.672 73.8113 443.387 73.2352C444.103 72.6505 444.638 71.8649 444.992 70.8784C445.355 69.892 445.541 68.7915 445.55 67.5769C445.559 66.3536 445.389 65.2462 445.041 64.2546C444.701 63.2543 444.178 62.4566 443.47 61.8615C442.763 61.2664 441.881 60.9649 440.822 60.9572C439.738 60.9493 438.833 61.2376 438.109 61.8223C437.393 62.4071 436.854 63.197 436.491 64.1921C436.137 65.1786 435.955 66.2834 435.946 67.5067C435.937 68.7213 436.103 69.8243 436.442 70.8159C436.791 71.8075 437.319 72.6009 438.026 73.196C438.742 73.7825 439.642 74.0798 440.726 74.0877ZM462.887 85.5459C461.195 85.5335 459.744 85.293 458.532 84.8243C457.321 84.3643 456.349 83.7499 455.618 82.981C454.886 82.2122 454.38 81.3626 454.101 80.4322L458.35 79.4352C458.538 79.827 458.813 80.215 459.175 80.5994C459.536 80.9925 460.024 81.3171 460.638 81.5732C461.261 81.838 462.045 81.9739 462.991 81.9808C464.327 81.9905 465.435 81.6733 466.316 81.029C467.197 80.3934 467.643 79.3382 467.654 77.8634L467.682 74.0765L467.447 74.0748C467.201 74.5588 466.842 75.0551 466.369 75.5635C465.906 76.072 465.291 76.497 464.525 76.8384C463.768 77.1799 462.817 77.3465 461.671 77.3381C460.136 77.3269 458.746 76.9567 457.502 76.2275C456.267 75.4897 455.286 74.398 454.559 72.9525C453.841 71.4983 453.489 69.6824 453.505 67.5049C453.521 65.31 453.899 63.4604 454.639 61.9561C455.388 60.4433 456.389 59.3011 457.644 58.5294C458.899 57.749 460.295 57.3645 461.83 57.3757C463.001 57.3843 463.963 57.5908 464.715 57.9954C465.475 58.3914 466.079 58.8687 466.526 59.4272C466.974 59.9771 467.312 60.4958 467.543 60.9833L467.803 60.9852L467.828 57.6798L472.473 57.7138L472.325 78.0277C472.312 79.7367 471.894 81.1479 471.071 82.2611C470.247 83.3743 469.126 84.2033 467.708 84.7482C466.29 85.2931 464.683 85.559 462.887 85.5459ZM463.013 73.6519C464.01 73.6592 464.862 73.4225 465.569 72.9418C466.275 72.4611 466.814 71.7666 467.185 70.8584C467.556 69.9501 467.746 68.8583 467.755 67.583C467.764 66.325 467.59 65.2219 467.233 64.2736C466.884 63.3254 466.36 62.5884 465.661 62.0627C464.971 61.5284 464.118 61.2576 463.103 61.2502C462.054 61.2425 461.175 61.5094 460.469 62.0508C459.762 62.5922 459.227 63.3388 458.865 64.2905C458.502 65.2336 458.316 66.308 458.307 67.5139C458.299 68.7372 458.469 69.8099 458.818 70.7321C459.175 71.6457 459.704 72.361 460.403 72.878C461.11 73.3864 461.98 73.6444 463.013 73.6519ZM477.155 77.7376L477.301 57.749L482.012 57.7835L481.866 77.772L477.155 77.7376ZM479.69 54.9294C478.944 54.924 478.304 54.672 477.77 54.1736C477.236 53.6665 476.971 53.0616 476.976 52.3588C476.982 51.6474 477.255 51.0465 477.796 50.5559C478.338 50.0566 478.982 49.8097 479.728 49.8152C480.483 49.8207 481.123 50.077 481.648 50.584C482.183 51.0825 482.447 51.6874 482.442 52.3988C482.437 53.1015 482.163 53.7025 481.622 54.2017C481.089 54.6924 480.445 54.935 479.69 54.9294ZM495.557 78.2625C493.552 78.2479 491.825 77.8188 490.373 76.9753C488.931 76.1232 487.825 74.9265 487.055 73.3852C486.285 71.8352 485.908 70.0148 485.924 67.924C485.939 65.8679 486.342 64.0662 487.134 62.519C487.935 60.9632 489.046 59.7566 490.466 58.8994C491.887 58.0335 493.551 57.6075 495.46 57.6215C496.692 57.6305 497.853 57.8385 498.943 58.2456C500.042 58.644 501.01 59.2584 501.845 60.0888C502.689 60.9192 503.35 61.9738 503.826 63.2526C504.303 64.5228 504.535 66.0342 504.522 67.7866L504.511 69.2311L488.127 69.1114L488.151 65.9361L500.019 66.0228C500.017 65.1205 499.827 64.3166 499.451 63.6111C499.074 62.8969 498.545 62.3334 497.862 61.9207C497.189 61.508 496.401 61.2983 495.498 61.2917C494.535 61.2847 493.688 61.5127 492.956 61.9759C492.224 62.4304 491.651 63.0335 491.238 63.7853C490.833 64.5285 490.623 65.3469 490.608 66.2404L490.588 69.0122C490.579 70.1748 490.784 71.174 491.203 72.01C491.623 72.8373 492.212 73.4749 492.972 73.9229C493.733 74.3623 494.625 74.5857 495.648 74.5932C496.334 74.5982 496.955 74.5073 497.511 74.3205C498.068 74.125 498.552 73.8379 498.962 73.4592C499.373 73.0804 499.684 72.6099 499.897 72.0475L504.292 72.5741C504.005 73.7346 503.469 74.7458 502.682 75.6077C501.903 76.4609 500.909 77.1217 499.7 77.59C498.491 78.0497 497.109 78.2739 495.557 78.2625ZM524.339 63.3765L520.041 63.8136C519.922 63.379 519.713 62.9697 519.412 62.5857C519.12 62.2018 518.723 61.8909 518.222 61.653C517.72 61.4151 517.105 61.2935 516.376 61.2881C515.396 61.281 514.57 61.4875 513.899 61.9077C513.237 62.328 512.907 62.8765 512.911 63.5533C512.898 64.1345 513.107 64.6089 513.538 64.9764C513.978 65.344 514.705 65.6487 515.718 65.8903L519.122 66.644C521.01 67.0656 522.411 67.7222 523.324 68.6138C524.246 69.5055 524.706 70.6671 524.704 72.0986C524.686 73.3565 524.31 74.4643 523.574 75.422C522.847 76.371 521.839 77.1098 520.551 77.6383C519.263 78.1668 517.787 78.425 516.121 78.4128C513.674 78.3949 511.709 77.8687 510.224 76.834C508.739 75.7907 507.861 74.3484 507.588 72.5071L512.185 72.0982C512.386 73.002 512.824 73.6863 513.497 74.151C514.171 74.6158 515.049 74.8521 516.134 74.8601C517.253 74.8682 518.153 74.6449 518.833 74.19C519.521 73.7352 519.868 73.1695 519.873 72.4928C519.877 71.9202 519.66 71.4458 519.22 71.0695C518.789 70.6933 518.114 70.402 517.196 70.1958L513.792 69.4551C511.877 69.042 510.464 68.3593 509.551 67.4069C508.639 66.4459 508.192 65.2367 508.211 63.7792C508.212 62.5472 508.553 61.4826 509.237 60.5853C509.929 59.6793 510.884 58.9836 512.102 58.4979C513.329 58.0037 514.741 57.7624 516.337 57.7741C518.679 57.7912 520.519 58.3035 521.857 59.311C523.203 60.3186 524.03 61.6738 524.339 63.3765Z" fill="white"/>
<g clip-path="url(#clip0_1188_491)">
<path d="M33.4306 70.8583L0.248047 70.6159L18.1807 36.1777" fill="#004496"/>
<path d="M51.6298 34.1768L18.1504 36.1814L33.4329 70.862" fill="#0050AA"/>
<path d="M36.4072 0.901367L18.1504 36.1811L51.6298 34.1765" fill="#005BBF"/>
<path d="M51.627 34.1859L36.1211 0.905273L67.615 1.13679" fill="#007EFC"/>
<path d="M82.7364 36.6519L51.6348 33.8955L67.62 1.12695" fill="#005BBF"/>
<path d="M82.7325 36.6558L51.6309 33.8994L64.2823 67.3925" fill="#0050AA"/>
<path d="M67.6242 68.3203L48.4277 102.026L82.106 104.169" fill="#004496"/>
<path d="M119.514 35.3721L85.6562 36.0339L99.1739 71.5343" fill="#0072E8"/>
<path d="M67.4727 68.5919L99.672 70.6428L85.6614 36.2373L67.4727 68.5919Z" fill="#005BBF"/>
<path d="M85.875 36.2512L119.169 35.554L106.087 2.05273L85.875 36.2512Z" fill="#005BBF"/>
<path d="M81.952 104.147L67.4512 68.584L99.6559 70.6349" fill="#0050AA"/>
<path d="M105.803 2.04004L119.13 36.1214L137.237 4.04194L105.803 2.04004Z" fill="#007EFC"/>
</g>
<defs>
<clipPath id="clip0_1188_491">
<rect width="137.919" height="105.096" fill="white" transform="translate(0 0.638672)"/>
</clipPath>
</defs>
</svg>
